:SAMPLES-PER-SECOND 30
:FULLY-SPECIFIED
:DEGREES
520
root  -1.67134 38.4732 1.49364 -6.33594 -86.5161 3.0011
RightUpLeg  6.42723 -15.2807 -23.541
RightLeg  -0.356609 1.5518 0.354313
RightFoot  4.38272 -4.06548 29.0728
RightToes  -6.40286e-010 0 -3.6325e-017
Spine  7.53428 -0.158356 3.10717
Spine1  -2.70561 0.525179 -2.60894
HEad  -2.7293 -15.8978 -1.10455
LeftShoulder1  2.64821 -6.10849 -21.18
LeftArm  0.168149 17.1054 -47.6831
LeftForeArm  5.51874 -12.5524 -11.1039
LeftHand  -0.715379 0.683081 17.6428
RightShoulder  1.35103 1.98987 18.028
RightArm  2.84577 -15.4502 52.4156
RightForeArm  14.4455 11.9117 11.9922
RightHand  -0.50258 -1.84765 -16.3067
LeftUpLeg  4.9422 16.2529 22.8163
LeftLeg  -0.657012 -10.3643 1.26177
LeftFoot  1.81312 3.21526 -27.4959
LeftToes  -2.09187e-010 -4.93792e-011 -8.21189e-011
521
root  -1.69881 38.4697 1.49517 -6.36316 -86.5786 3.0498
RightUpLeg  6.41925 -15.297 -23.5545
RightLeg  -0.339925 1.62866 0.370708
RightFoot  4.34554 -4.06006 29.1009
RightToes  -6.40286e-010 0 -3.6325e-017
Spine  7.37554 -0.22522 3.15481
Spine1  -2.48058 0.487186 -2.76879
HEad  -2.36446 -15.8426 -1.10895
LeftShoulder1  2.64433 -6.08088 -21.2215
LeftArm  0.321299 16.9984 -47.704
LeftForeArm  5.234 -12.7053 -11.0343
LeftHand  -0.73104 0.600859 17.7235
RightShoulder  1.35103 1.97793 18.1639
RightArm  2.93471 -15.5341 52.3368
RightForeArm  14.5064 11.9596 11.9694
RightHand  -0.51086 -1.82089 -16.457
LeftUpLeg  4.95294 16.231 22.8152
LeftLeg  -0.587062 -10.2903 1.28429
LeftFoot  1.74702 3.20121 -27.5116
LeftToes  -2.09187e-010 -4.93792e-011 -8.21189e-011
522
root  -1.72433 38.467 1.49904 -6.56152 -86.6279 3.25928
RightUpLeg  6.42266 -15.3072 -23.5815
RightLeg  -0.326655 1.7023 0.374989
RightFoot  4.31093 -4.05006 29.0933
RightToes  -6.40286e-010 0 -3.6325e-017
Spine  7.28009 -0.289218 3.15465
Spine1  -2.32479 0.436865 -2.83598
HEad  -1.68395 -15.7508 -1.18436
LeftShoulder1  2.62195 -5.96883 -21.3172
LeftArm  0.339751 16.8648 -47.7591
LeftForeArm  5.25465 -12.6972 -11.0409
LeftHand  -0.751501 0.523154 17.9312
RightShoulder  1.34284 1.92538 18.2561
RightArm  2.87639 -15.6058 52.2638
RightForeArm  14.8496 11.9316 11.9694
RightHand  -0.51609 -1.77424 -16.4163
LeftUpLeg  4.97222 16.2171 22.808
LeftLeg  -0.51746 -10.2353 1.28566
LeftFoot  1.67959 3.18323 -27.4974
LeftToes  -2.09187e-010 -4.93792e-011 -8.21189e-011
523
root  -1.75353 38.4661 1.50461 -6.74329 -86.6448 3.43347
RightUpLeg  6.4882 -15.3126 -23.6167
RightLeg  -0.359677 1.74672 0.37707
RightFoot  4.28013 -4.03846 29.068
RightToes  -6.40286e-010 0 -3.6325e-017
Spine  7.22872 -0.339581 3.05473
Spine1  -2.28305 0.368714 -2.74313
HEad  -0.550432 -15.5871 -1.32287
LeftShoulder1  2.59247 -5.81977 -21.4514
LeftArm  0.288077 16.7983 -47.8532
LeftForeArm  5.4485 -12.6297 -11.0726
LeftHand  -0.766264 0.449874 18.0161
RightShoulder  1.32343 1.85737 18.2047
RightArm  2.32607 -15.6941 52.2634
RightForeArm  15.4959 11.6527 12.0731
RightHand  -0.496237 -1.87298 -16.2129
LeftUpLeg  5.02099 16.214 22.8066
LeftLeg  -0.479911 -10.2236 1.28018
LeftFoot  1.62034 3.16656 -27.4777
LeftToes  -2.09187e-010 -4.93792e-011 -8.21189e-011
524
root  -1.78817 38.4659 1.51165 -7.19482 -86.6948 3.87537
RightUpLeg  6.5762 -15.329 -23.6713
RightLeg  -0.442384 1.82391 0.382126
RightFoot  4.25902 -4.03489 29.0805
RightToes  -6.40286e-010 0 -3.6325e-017
Spine  7.10462 -0.348147 2.96792
Spine1  -2.23449 0.349004 -2.71163
HEad  0.574223 -15.4618 -1.49167
LeftShoulder1  2.56707 -5.69628 -21.5544
LeftArm  0.261979 16.7807 -47.96
LeftForeArm  5.52279 -12.5835 -11.0993
LeftHand  -0.752567 0.450624 17.6985
RightShoulder  1.30216 1.80125 18.0535
RightArm  1.17119 -15.7966 52.353
RightForeArm  16.5334 11.1082 12.2659
RightHand  -0.470147 -2.03545 -16.0812
LeftUpLeg  5.12904 16.2191 22.8128
LeftLeg  -0.496733 -10.1932 1.26672
LeftFoot  1.56947 3.15468 -27.4808
LeftToes  -2.09187e-010 -4.93792e-011 -8.21189e-011
525
root  -1.82435 38.4662 1.52236 -8.57764 -86.8475 5.23584
RightUpLeg  6.62093 -15.3701 -23.7737
RightLeg  -0.503542 2.02825 0.381203
RightFoot  4.24154 -4.03637 29.1228
RightToes  -6.40286e-010 0 -3.6325e-017
Spine  6.86458 -0.297673 2.9745
Spine1  -1.97449 0.428642 -2.888
HEad  0.988037 -15.4492 -1.61615
LeftShoulder1  2.53809 -5.58868 -21.5661
LeftArm  0.350973 16.7353 -48.1096
LeftForeArm  5.30976 -12.6507 -11.0788
LeftHand  -0.72786 0.506658 17.3176
RightShoulder  1.28311 1.74333 17.9544
RightArm  0.0255504 -15.9037 52.4645
RightForeArm  17.411 10.7006 12.369
RightHand  -0.471622 -2.04299 -16.166
LeftUpLeg  5.34384 16.2187 22.8023
LeftLeg  -0.576259 -10.0683 1.2398
LeftFoot  1.53099 3.14678 -27.4924
LeftToes  -2.09187e-010 -4.93792e-011 -8.21189e-011
526
root  -1.85492 38.4668 1.53438 -10.8217 -87.0503 7.42334
RightUpLeg  6.6243 -15.4217 -23.9095
RightLeg  -0.489182 2.31838 0.367261
RightFoot  4.21553 -4.03251 29.1502
RightToes  -6.40286e-010 0 -3.6325e-017
Spine  6.61782 -0.224708 2.98642
Spine1  -1.48785 0.547417 -3.09924
HEad  0.6245 -15.472 -1.61331
LeftShoulder1  2.49952 -5.46116 -21.5306
LeftArm  0.608303 16.6832 -48.3057
LeftForeArm  4.79603 -12.9215 -10.9569
LeftHand  -0.73055 0.53095 17.4626
RightShoulder  1.27097 1.68034 18.024
RightArm  -0.173033 -16.0159 52.4678
RightForeArm  17.1934 10.8832 12.2491
RightHand  -0.508633 -1.82956 -16.4218
LeftUpLeg  5.62716 16.2052 22.7746
LeftLeg  -0.679539 -9.88885 1.20848
LeftFoot  1.50892 3.14086 -27.4873
LeftToes  -2.09187e-010 -4.93792e-011 -8.21189e-011
527
root  -1.8746 38.4676 1.54225 -12.6643 -87.1762 9.21875
RightUpLeg  6.62091 -15.4549 -24.0099
RightLeg  -0.453392 2.51548 0.350875
RightFoot  4.19554 -4.03211 29.1735
RightToes  -6.40286e-010 0 -3.6325e-017
Spine  6.45483 -0.195077 2.91231
Spine1  -0.997921 0.598328 -3.15585
HEad  0.0276304 -15.426 -1.50991
LeftShoulder1  2.46754 -5.33966 -21.5531
LeftArm  0.960695 16.702 -48.4402
LeftForeArm  4.19773 -13.2899 -10.7783
LeftHand  -0.756541 0.491304 17.9366
RightShoulder  1.27298 1.64433 18.2534
RightArm  0.716652 -16.1047 52.2883
RightForeArm  15.8723 11.5282 11.9904
RightHand  -0.551271 -1.59439 -16.7294
LeftUpLeg  5.81384 16.1923 22.7471
LeftLeg  -0.731305 -9.77284 1.18444
LeftFoot  1.49471 3.13581 -27.474
LeftToes  -2.09187e-010 -4.93792e-011 -8.21189e-011
528
root  -1.88494 38.4683 1.5455 -13.126 -87.1833 9.71936
RightUpLeg  6.59938 -15.461 -24.0288
RightLeg  -0.476497 2.51394 0.34283
RightFoot  4.20819 -4.04165 29.2171
RightToes  -6.40286e-010 0 -3.6325e-017
Spine  6.32084 -0.221349 2.80149
Spine1  -0.6797 0.566091 -3.11103
HEad  -0.416541 -15.331 -1.40724
LeftShoulder1  2.46222 -5.28524 -21.6721
LeftArm  1.18055 16.7678 -48.4176
LeftForeArm  3.94391 -13.4512 -10.7014
LeftHand  -0.765854 0.434014 17.9502
RightShoulder  1.28267 1.6348 18.5085
RightArm  1.74259 -16.1238 52.0317
RightForeArm  14.6244 12.0436 11.8029
RightHand  -0.558879 -1.58552 -16.9227
LeftUpLeg  5.7866 16.1936 22.7199
LeftLeg  -0.70717 -9.75475 1.16588
LeftFoot  1.47958 3.13206 -27.4703
LeftToes  -2.09187e-010 -4.93792e-011 -8.21189e-011
529
root  -1.89287 38.4689 1.5483 -12.8099 -87.1487 9.53015
RightUpLeg  6.52347 -15.4482 -23.9858
RightLeg  -0.540946 2.39533 0.333681
RightFoot  4.24447 -4.05441 29.2405
RightToes  -6.40286e-010 0 -3.6325e-017
Spine  6.15535 -0.252541 2.74269
Spine1  -0.514678 0.525261 -3.08359
HEad  -0.580513 -15.2606 -1.33225
LeftShoulder1  2.47918 -5.29696 -21.8374
LeftArm  1.02786 16.7976 -48.2846
LeftForeArm  4.27645 -13.2202 -10.8221
LeftHand  -0.740612 0.43167 17.3553
RightShoulder  1.28199 1.60688 18.6425
RightArm  1.86005 -16.0837 51.8997
RightForeArm  14.4627 12.0494 11.8129
RightHand  -0.526871 -1.78856 -16.8243
LeftUpLeg  5.62648 16.2039 22.6825
LeftLeg  -0.663786 -9.75239 1.14626
LeftFoot  1.46943 3.13062 -27.4676
LeftToes  -2.09187e-010 -4.93792e-011 -8.21189e-011
530
root  -1.90397 38.4691 1.55192 -12.6415 -87.1529 9.49646
RightUpLeg  6.41049 -15.4221 -23.9266
RightLeg  -0.580258 2.29755 0.309196
RightFoot  4.27115 -4.05883 29.2236
RightToes  -6.40286e-010 0 -3.6325e-017
Spine  6.01539 -0.257698 2.74506
Spine1  -0.461058 0.518403 -3.09215
HEad  -0.251172 -15.1762 -1.27364
LeftShoulder1  2.49121 -5.29871 -21.9768
LeftArm  0.356746 16.8024 -48.1553
LeftForeArm  5.02541 -12.6788 -11.073
LeftHand  -0.700129 0.544334 16.7899
RightShoulder  1.26932 1.55509 18.6503
RightArm  0.861768 -16.0376 51.9475
RightForeArm  15.3198 11.5912 11.9775
RightHand  -0.492831 -1.95275 -16.4674
LeftUpLeg  5.49824 16.2126 22.6461
LeftLeg  -0.653162 -9.69935 1.12814
LeftFoot  1.4681 3.12962 -27.4668
LeftToes  -2.09187e-010 -4.93792e-011 -8.21189e-011
531
root  -1.91814 38.4688 1.55378 -12.7175 -87.1896 9.65417
RightUpLeg  6.32916 -15.3906 -23.8829
RightLeg  -0.592457 2.26074 0.276659
RightFoot  4.27872 -4.06346 29.242
RightToes  -6.40286e-010 0 -3.6325e-017
Spine  5.92982 -0.264755 2.76781
Spine1  -0.482892 0.517408 -3.13352
HEad  0.389747 -14.9662 -1.29211
LeftShoulder1  2.47543 -5.22517 -22.0376
LeftArm  -0.814201 16.8287 -48.0875
LeftForeArm  5.92418 -11.9978 -11.3367
LeftHand  -0.666092 0.742888 16.644
RightShoulder  1.25978 1.51731 18.6498
RightArm  -0.683202 -15.9763 52.0547
RightForeArm  16.5196 10.9069 12.1957
RightHand  -0.482951 -1.95369 -16.1388
LeftUpLeg  5.45422 16.2164 22.6291
LeftLeg  -0.655977 -9.62891 1.11816
LeftFoot  1.46089 3.12722 -27.4703
LeftToes  -2.09187e-010 -4.93792e-011 -8.21189e-011
532
root  -1.93026 38.4677 1.55353 -12.8187 -87.2071 9.776
RightUpLeg  6.31927 -15.3736 -23.8739
RightLeg  -0.59785 2.25738 0.257305
RightFoot  4.27077 -4.07389 29.3275
RightToes  -6.40286e-010 0 -3.6325e-017
Spine  5.79371 -0.292084 2.75809
Spine1  -0.3703 0.498098 -3.17757
HEad  0.273838 -14.638 -1.42926
LeftShoulder1  2.43615 -5.09259 -22.0163
LeftArm  -2.08272 16.8135 -48.0901
LeftForeArm  6.75009 -11.3826 -11.5275
LeftHand  -0.646927 0.883582 16.6583
RightShoulder  1.25349 1.48668 18.6807
RightArm  -1.85918 -15.8597 52.1591
RightForeArm  17.3075 10.4226 12.3245
RightHand  -0.48298 -1.92885 -16.0256
LeftUpLeg  5.44536 16.2125 22.6263
LeftLeg  -0.626108 -9.60462 1.11909
LeftFoot  1.43297 3.12202 -27.4828
LeftToes  -2.09187e-010 -4.93792e-011 -8.21189e-011
533
root  -1.93332 38.4649 1.55238 -12.8809 -87.1925 9.79761
RightUpLeg  6.35543 -15.3837 -23.9
RightLeg  -0.555172 2.28465 0.259642
RightFoot  4.23361 -4.06972 29.365
RightToes  -6.40286e-010 0 -3.6325e-017
Spine  5.5742 -0.302603 2.65489
Spine1  0.108813 0.477809 -3.07872
HEad  -1.43691 -14.3721 -1.56456
LeftShoulder1  2.40291 -4.98155 -21.9938
LeftArm  -2.68764 16.6923 -48.1509
LeftForeArm  7.05322 -11.1642 -11.5711
LeftHand  -0.641622 0.91443 16.6334
RightShoulder  1.23613 1.42372 18.6476
RightArm  -1.80278 -15.7692 52.3281
RightForeArm  16.9473 10.7234 12.1695
RightHand  -0.478867 -1.96321 -16.0438
LeftUpLeg  5.44655 16.1981 22.6262
LeftLeg  -0.550852 -9.63326 1.1313
LeftFoot  1.39251 3.11409 -27.4983
LeftToes  -2.09187e-010 -4.93792e-011 -8.21189e-011
534
root  -1.92382 38.4624 1.55097 -12.7747 -87.1767 9.60132
RightUpLeg  6.38646 -15.4092 -23.9296
RightLeg  -0.432991 2.34798 0.277347
RightFoot  4.16825 -4.03978 29.2752
RightToes  -6.40286e-010 0 -3.6325e-017
Spine  5.45101 -0.264892 2.45959
Spine1  0.790122 0.471071 -2.74534
HEad  -3.93918 -14.3199 -1.53516
LeftShoulder1  2.40281 -4.96108 -22.0651
LeftArm  -2.18166 16.5854 -48.2159
LeftForeArm  6.40741 -11.5641 -11.4276
LeftHand  -0.639754 0.959736 16.7512
RightShoulder  1.2143 1.35952 18.5136
RightArm  -0.346323 -15.8662 52.562
RightForeArm  15.2593 11.9415 11.6426
RightHand  -0.491614 -1.88641 -16.1205
LeftUpLeg  5.46002 16.1825 22.6377
LeftLeg  -0.444689 -9.67498 1.15056
LeftFoot  1.35775 3.10538 -27.4955
LeftToes  -2.09187e-010 -4.93792e-011 -8.21189e-011
